<svg width="46" height="41" viewBox="0 0 46 41" fill="none" xmlns="http://www.w3.org/2000/svg">
<path d="M39.6889 14.1654V4.08895H41.1111V17.0098V17.3042L41.3188 17.5133L44.6667 20.8598L43.6612 21.8667L42.3243 20.5298L41.1111 19.3138V21.0319V21.8667C41.1111 22.7769 40.7698 23.6061 40.2066 24.2361L39.7813 24.7097L40.2052 25.1848C40.7243 25.7636 41.0542 26.5117 41.104 27.3352L41.1111 27.5656V28.9778C41.1111 29.8881 40.7698 30.7172 40.2066 31.3473L39.7813 31.8209L40.2052 32.2959C40.7243 32.8747 41.0542 33.6228 41.104 34.4463L41.1111 34.6767V36.089C41.1111 37.9791 39.6363 39.525 37.7746 39.6374L37.5456 39.6445H9.11111C7.22098 39.6445 5.67502 38.1697 5.56267 36.308L5.55556 36.0776V34.6667C5.55556 33.7551 5.89689 32.9259 6.46009 32.2959L6.88533 31.8223L6.46009 31.3473C5.9424 30.7684 5.61244 30.0203 5.56267 29.1969L5.55556 28.9665V27.5556C5.55556 26.644 5.89689 25.8148 6.46009 25.1848L6.88533 24.7112L6.46009 24.2361C5.95662 23.6729 5.62951 22.949 5.56693 22.1497L5.55556 21.8525V21.0319V19.3153L4.34098 20.5298L3.00551 21.8667L2 20.8612L20.8188 2.04095C22.1486 0.711168 24.272 0.655702 25.6672 1.87312L25.8549 2.04948L38.4743 14.6689L39.6889 15.882V14.1654ZM16.9333 33.2431V32.532H16.2222L9.11111 32.5334C8.016 32.5334 7.11573 33.3569 6.992 34.4178L6.98916 34.4392L6.98773 34.4591L6.9792 34.6255L6.97778 34.6454V34.6667V36.089C6.97778 37.1826 7.80125 38.0843 8.86365 38.2081L8.88356 38.2095L8.90347 38.2109L9.06987 38.2209L9.08978 38.2223H9.11111H16.2222H16.9333V37.5112V33.2431ZM28.3111 24.7112V24.0001H27.6H19.0667H18.3556V24.7112V37.5112V38.2223H19.0667H27.6H28.3111V37.5112V24.7112ZM37.5968 32.5334H37.5755H37.5556L30.4444 32.532H29.7333V33.2431V37.5112V38.2223H30.4444H37.5556C38.6492 38.2223 39.5509 37.3974 39.6747 36.3364L39.6761 36.3165L39.6775 36.2952L39.6875 36.1288L39.6889 36.1089V36.089V34.6667C39.6889 33.5716 38.8654 32.6699 37.803 32.5476L37.7831 32.5448L37.7618 32.5433L37.5968 32.5334ZM37.5968 25.4223H37.5755H37.5556L30.4444 25.4209H29.7333V26.132V30.3986V31.1098H30.4444L37.5556 31.1112C38.6492 31.1112 39.5509 30.2863 39.6747 29.2253L39.6761 29.2054L39.6775 29.1841L39.6875 29.0177L39.6889 28.9977V28.9778V27.5556C39.6889 26.4605 38.8654 25.5588 37.803 25.4365L37.7831 25.4337L37.7618 25.4322L37.5968 25.4223ZM16.9333 26.132V25.4209H16.2222L9.11111 25.4223C8.016 25.4223 7.11573 26.2457 6.992 27.3067L6.98916 27.3281L6.98773 27.348L6.9792 27.5144L6.97778 27.5343V27.5556V28.9778C6.97778 30.0715 7.80125 30.9732 8.86365 31.0969L8.88356 31.0984L8.90347 31.0998L9.06987 31.1098L9.08978 31.1112H9.11111L16.2222 31.1098H16.9333V30.3986V26.132ZM6.992 20.1956L6.98916 20.2169L6.98773 20.2369L6.9792 20.4033L6.97778 20.4232V20.4445V21.8667C6.97778 22.9604 7.80125 23.8621 8.86365 23.9858L8.88356 23.9873L8.90347 23.9887L9.06987 23.9986L9.08978 24.0001H9.11111L16.6034 23.9986H17.013L17.2178 23.6431C17.562 23.0514 18.1792 22.6404 18.8946 22.5835L19.0795 22.5778H27.6C28.3879 22.5778 29.0777 23.0045 29.4475 23.6445L29.6537 23.9986H30.0633L37.5556 24.0001C38.6492 24.0001 39.5509 23.1752 39.6747 22.1142L39.6761 22.0943L39.6775 22.0729L39.6875 21.9065L39.6889 21.8866V21.8667V20.4445C39.6889 19.2655 38.7332 18.3112 37.5556 18.3112H9.11111C8.016 18.3112 7.11573 19.1346 6.992 20.1956ZM33.2021 11.4063L32.9945 11.1986H32.7001H13.9666H13.6722L13.4631 11.4063L9.19644 15.6729L7.98329 16.8875H9.69991H36.9668H38.6834L37.4688 15.6729L33.2021 11.4063ZM22.0249 2.8701L22.0078 2.88432L21.9908 2.89855L21.8571 3.01659L21.84 3.03081L21.8244 3.04646L16.3076 8.56184L15.093 9.77641H16.811H29.8556H31.5723L30.3577 8.56184L24.8409 3.04646C24.0715 2.27703 22.8626 2.21872 22.0249 2.8701Z" fill="#717171"/>
<path d="M39.6889 14.1654V4.08895H41.1111V17.0098V17.3042L41.3188 17.5133L44.6667 20.8598L43.6612 21.8667L42.3243 20.5298L41.1111 19.3138V21.0319V21.8667C41.1111 22.7769 40.7698 23.6061 40.2066 24.2361L39.7813 24.7097L40.2052 25.1848C40.7243 25.7636 41.0542 26.5117 41.104 27.3352L41.1111 27.5656V28.9778C41.1111 29.8881 40.7698 30.7172 40.2066 31.3473L39.7813 31.8209L40.2052 32.2959C40.7243 32.8747 41.0542 33.6228 41.104 34.4463L41.1111 34.6767V36.0889C41.1111 37.9791 39.6363 39.525 37.7746 39.6374L37.5456 39.6445H9.11111C7.22098 39.6445 5.67502 38.1697 5.56267 36.308L5.55556 36.0776V34.6667C5.55556 33.7551 5.89689 32.9259 6.46009 32.2959L6.88533 31.8223L6.46009 31.3473C5.9424 30.7684 5.61244 30.0203 5.56267 29.1969L5.55556 28.9665V27.5556C5.55556 26.644 5.89689 25.8148 6.46009 25.1848L6.88533 24.7112L6.46009 24.2361C5.95662 23.6729 5.62951 22.949 5.56693 22.1497L5.55556 21.8525V21.0319V19.3153L4.34098 20.5298L3.00551 21.8667L2 20.8612L20.8188 2.04095C22.1486 0.711168 24.272 0.655702 25.6672 1.87312L25.8549 2.04948L38.4743 14.6689L39.6889 15.882V14.1654ZM16.9333 33.2431V32.532H16.2222L9.11111 32.5334C8.016 32.5334 7.11573 33.3569 6.992 34.4178L6.98916 34.4392L6.98773 34.4591L6.9792 34.6255L6.97778 34.6454V34.6667V36.0889C6.97778 37.1826 7.80125 38.0843 8.86364 38.2081L8.88356 38.2095L8.90347 38.2109L9.06987 38.2209L9.08978 38.2223H9.11111H16.2222H16.9333V37.5112V33.2431ZM28.3111 24.7112V24.0001H27.6H19.0667H18.3556V24.7112V37.5112V38.2223H19.0667H27.6H28.3111V37.5112V24.7112ZM37.5968 32.5334H37.5755H37.5556L30.4444 32.532H29.7333V33.2431V37.5112V38.2223H30.4444H37.5556C38.6492 38.2223 39.5509 37.3974 39.6747 36.3364L39.6761 36.3165L39.6775 36.2952L39.6875 36.1288L39.6889 36.1089V36.0889V34.6667C39.6889 33.5716 38.8654 32.6699 37.803 32.5476L37.7831 32.5448L37.7618 32.5433L37.5968 32.5334ZM37.5968 25.4223H37.5755H37.5556L30.4444 25.4209H29.7333V26.132V30.3986V31.1097H30.4444L37.5556 31.1112C38.6492 31.1112 39.5509 30.2863 39.6747 29.2253L39.6761 29.2054L39.6775 29.1841L39.6875 29.0177L39.6889 28.9977V28.9778V27.5556C39.6889 26.4605 38.8654 25.5588 37.803 25.4365L37.7831 25.4337L37.7618 25.4322L37.5968 25.4223ZM16.9333 26.132V25.4209H16.2222L9.11111 25.4223C8.016 25.4223 7.11573 26.2457 6.992 27.3067L6.98916 27.3281L6.98773 27.348L6.9792 27.5144L6.97778 27.5343V27.5556V28.9778C6.97778 30.0715 7.80125 30.9732 8.86364 31.0969L8.88356 31.0984L8.90347 31.0998L9.06987 31.1097L9.08978 31.1112H9.11111L16.2222 31.1097H16.9333V30.3986V26.132ZM6.992 20.1956L6.98916 20.2169L6.98773 20.2369L6.9792 20.4033L6.97778 20.4232V20.4445V21.8667C6.97778 22.9604 7.80125 23.8621 8.86364 23.9858L8.88356 23.9873L8.90347 23.9887L9.06987 23.9986L9.08978 24.0001H9.11111L16.6034 23.9986H17.013L17.2178 23.6431C17.562 23.0514 18.1792 22.6404 18.8946 22.5835L19.0795 22.5778H27.6C28.3879 22.5778 29.0777 23.0045 29.4475 23.6445L29.6537 23.9986H30.0633L37.5556 24.0001C38.6492 24.0001 39.5509 23.1752 39.6747 22.1142L39.6761 22.0943L39.6775 22.0729L39.6875 21.9065L39.6889 21.8866V21.8667V20.4445C39.6889 19.2655 38.7332 18.3112 37.5556 18.3112H9.11111C8.016 18.3112 7.11573 19.1346 6.992 20.1956ZM33.2021 11.4063L32.9945 11.1986H32.7001H13.9666H13.6722L13.4631 11.4063L9.19645 15.6729L7.98329 16.8875H9.69991H36.9668H38.6834L37.4688 15.6729L33.2021 11.4063ZM22.0249 2.8701L22.0078 2.88432L21.9908 2.89855L21.8571 3.01659L21.84 3.03081L21.8244 3.04646L16.3076 8.56184L15.093 9.77641H16.811H29.8556H31.5723L30.3577 8.56184L24.8409 3.04646C24.0715 2.27703 22.8626 2.21872 22.0249 2.8701Z" stroke="#717171" stroke-width="1.42222"/>
</svg>
